<svg preserveAspectRatio="none" overflow="visible" style="display: block;" width="86" height="85" viewBox="0 0 86 85" fill="none" xmlns="http://www.w3.org/2000/svg">
<path id="Union" fill-rule="evenodd" clip-rule="evenodd" d="M34.1473 0C53.006 0.000126739 68.2946 15.1641 68.2946 33.8708C68.2946 41.7901 65.5442 49.0665 60.9533 54.8342L84.889 78.5762C86.3703 80.0458 86.3703 82.4282 84.889 83.8979C83.4074 85.3675 81.0056 85.3673 79.5238 83.8979L55.6277 60.1952C49.76 64.9117 42.288 67.7416 34.1473 67.7416C15.2887 67.7414 1.88456e-06 52.5774 0 33.8708C1.30374e-06 15.1642 15.2887 0.000228877 34.1473 0ZM34.1473 7.15442C19.2721 7.15465 7.21282 19.1167 7.21282 33.8708C7.21283 48.6249 19.2721 60.587 34.1473 60.5872C49.0226 60.5871 61.0817 48.625 61.0817 33.8708C61.0817 19.1166 49.0226 7.15454 34.1473 7.15442Z" fill="#454DCE"/>
</svg>
